<svg width="66" height="66" viewBox="0 0 66 66" fill="none" xmlns="http://www.w3.org/2000/svg">
<circle cx="33" cy="33" r="33" fill="#F7F2E5"/>
<path d="M22.848 49.384C21.0133 49.384 19.3707 48.936 17.92 48.04C16.4693 47.1227 15.328 45.8 14.496 44.072C13.664 42.344 13.248 40.2533 13.248 37.8C13.248 35.3467 13.664 33.256 14.496 31.528C15.328 29.8 16.4693 28.488 17.92 27.592C19.3707 26.6747 21.0133 26.216 22.848 26.216C24.704 26.216 26.3467 26.6747 27.776 27.592C29.2267 28.488 30.368 29.8 31.2 31.528C32.032 33.256 32.448 35.3467 32.448 37.8C32.448 40.2533 32.032 42.344 31.2 44.072C30.368 45.8 29.2267 47.1227 27.776 48.04C26.3467 48.936 24.704 49.384 22.848 49.384ZM22.848 45C23.7227 45 24.48 44.7547 25.12 44.264C25.7813 43.7733 26.2933 42.9947 26.656 41.928C27.04 40.8613 27.232 39.4853 27.232 37.8C27.232 36.1147 27.04 34.7387 26.656 33.672C26.2933 32.6053 25.7813 31.8267 25.12 31.336C24.48 30.8453 23.7227 30.6 22.848 30.6C21.9947 30.6 21.2373 30.8453 20.576 31.336C19.936 31.8267 19.424 32.6053 19.04 33.672C18.6773 34.7387 18.496 36.1147 18.496 37.8C18.496 39.4853 18.6773 40.8613 19.04 41.928C19.424 42.9947 19.936 43.7733 20.576 44.264C21.2373 44.7547 21.9947 45 22.848 45ZM35.2897 49V45.64L43.9297 37.48C44.6124 36.8613 45.1137 36.3067 45.4338 35.816C45.7537 35.3253 45.9671 34.8773 46.0737 34.472C46.2017 34.0667 46.2657 33.6933 46.2657 33.352C46.2657 32.456 45.9564 31.7733 45.3377 31.304C44.7404 30.8133 43.8551 30.568 42.6817 30.568C41.7431 30.568 40.8684 30.7493 40.0577 31.112C39.2684 31.4747 38.5964 32.04 38.0417 32.808L34.2657 30.376C35.1191 29.096 36.3137 28.0827 37.8497 27.336C39.3857 26.5893 41.1564 26.216 43.1617 26.216C44.8258 26.216 46.2764 26.4933 47.5138 27.048C48.7724 27.5813 49.7431 28.3387 50.4258 29.32C51.1298 30.3013 51.4818 31.4747 51.4818 32.84C51.4818 33.5653 51.3858 34.2907 51.1938 35.016C51.0231 35.72 50.6604 36.4667 50.1058 37.256C49.5724 38.0453 48.7831 38.9307 47.7378 39.912L40.5697 46.664L39.5777 44.776H52.2178V49H35.2897Z" fill="#222222"/>
<path d="M19.664 20V14.4H22.088C22.5893 14.4 23.0213 14.4827 23.384 14.648C23.7467 14.808 24.0267 15.04 24.224 15.344C24.4213 15.648 24.52 16.0107 24.52 16.432C24.52 16.848 24.4213 17.208 24.224 17.512C24.0267 17.816 23.7467 18.0507 23.384 18.216C23.0213 18.376 22.5893 18.456 22.088 18.456H20.384L20.96 17.872V20H19.664ZM20.96 18.016L20.384 17.4H22.016C22.416 17.4 22.7147 17.3147 22.912 17.144C23.1093 16.9733 23.208 16.736 23.208 16.432C23.208 16.1227 23.1093 15.8827 22.912 15.712C22.7147 15.5413 22.416 15.456 22.016 15.456H20.384L20.96 14.84V18.016ZM28.4034 20.096C27.9607 20.096 27.55 20.024 27.1714 19.88C26.798 19.736 26.4727 19.5333 26.1954 19.272C25.9234 19.0107 25.71 18.704 25.5554 18.352C25.406 18 25.3314 17.616 25.3314 17.2C25.3314 16.784 25.406 16.4 25.5554 16.048C25.71 15.696 25.926 15.3893 26.2034 15.128C26.4807 14.8667 26.806 14.664 27.1794 14.52C27.5527 14.376 27.958 14.304 28.3954 14.304C28.838 14.304 29.2434 14.376 29.6114 14.52C29.9847 14.664 30.3074 14.8667 30.5794 15.128C30.8567 15.3893 31.0727 15.696 31.2274 16.048C31.382 16.3947 31.4594 16.7787 31.4594 17.2C31.4594 17.616 31.382 18.0027 31.2274 18.36C31.0727 18.712 30.8567 19.0187 30.5794 19.28C30.3074 19.536 29.9847 19.736 29.6114 19.88C29.2434 20.024 28.8407 20.096 28.4034 20.096ZM28.3954 18.992C28.646 18.992 28.8754 18.9493 29.0834 18.864C29.2967 18.7787 29.4834 18.656 29.6434 18.496C29.8034 18.336 29.926 18.1467 30.0114 17.928C30.102 17.7093 30.1474 17.4667 30.1474 17.2C30.1474 16.9333 30.102 16.6907 30.0114 16.472C29.926 16.2533 29.8034 16.064 29.6434 15.904C29.4887 15.744 29.3047 15.6213 29.0914 15.536C28.878 15.4507 28.646 15.408 28.3954 15.408C28.1447 15.408 27.9127 15.4507 27.6994 15.536C27.4914 15.6213 27.3074 15.744 27.1474 15.904C26.9874 16.064 26.862 16.2533 26.7714 16.472C26.686 16.6907 26.6434 16.9333 26.6434 17.2C26.6434 17.4613 26.686 17.704 26.7714 17.928C26.862 18.1467 26.9847 18.336 27.1394 18.496C27.2994 18.656 27.486 18.7787 27.6994 18.864C27.9127 18.9493 28.1447 18.992 28.3954 18.992ZM32.5934 20V14.4H33.8894V20H32.5934ZM35.3784 20V14.4H36.4504L39.7544 18.432H39.2344V14.4H40.5144V20H39.4504L36.1384 15.968H36.6584V20H35.3784ZM43.1593 20V15.456H41.3673V14.4H46.2473V15.456H44.4553V20H43.1593Z" fill="#222222"/>
</svg>
